<mxfile host="app.diagrams.net" agent="Mozilla/5.0 (Windows NT 10.0; Win64; x64) AppleWebKit/537.36 (KHTML, like Gecko) Chrome/134.0.0.0 Safari/537.36 OPR/119.0.0.0" version="27.1.4">
  <diagram name="ERD - Mincra Game" id="1">
    <mxGraphModel dx="998" dy="1711" grid="1" gridSize="10" guides="1" tooltips="1" connect="1" arrows="1" fold="1" page="1" pageScale="1" pageWidth="827" pageHeight="1169" math="0" shadow="0">
      <root>
        <mxCell id="0" />
        <mxCell id="1" parent="0" />
        <mxCell id="hDJ3BdoAYmhyjjbtG0V0-17" value="jugadores" style="rounded=1;arcSize=10;whiteSpace=wrap;html=1;" parent="1" vertex="1">
          <mxGeometry x="760" y="-40" width="120" height="80" as="geometry" />
        </mxCell>
        <mxCell id="hDJ3BdoAYmhyjjbtG0V0-18" value="&lt;u&gt;nombre&lt;/u&gt;" style="ellipse;whiteSpace=wrap;html=1;" parent="1" vertex="1">
          <mxGeometry x="600" y="-70" width="74" height="40" as="geometry" />
        </mxCell>
        <mxCell id="hDJ3BdoAYmhyjjbtG0V0-20" value="" style="endArrow=classic;html=1;rounded=0;entryX=1;entryY=0.5;entryDx=0;entryDy=0;exitX=0;exitY=0;exitDx=0;exitDy=0;" parent="1" source="hDJ3BdoAYmhyjjbtG0V0-17" target="hDJ3BdoAYmhyjjbtG0V0-18" edge="1">
          <mxGeometry width="50" height="50" relative="1" as="geometry">
            <mxPoint x="710" y="-60" as="sourcePoint" />
            <mxPoint x="832" y="-60" as="targetPoint" />
          </mxGeometry>
        </mxCell>
        <mxCell id="hDJ3BdoAYmhyjjbtG0V0-22" value="contraseÃ±a" style="ellipse;whiteSpace=wrap;html=1;" parent="1" vertex="1">
          <mxGeometry x="602" y="-20" width="70" height="40" as="geometry" />
        </mxCell>
        <mxCell id="hDJ3BdoAYmhyjjbtG0V0-24" value="idAscii" style="ellipse;whiteSpace=wrap;html=1;" parent="1" vertex="1">
          <mxGeometry x="600" y="30" width="74" height="40" as="geometry" />
        </mxCell>
        <mxCell id="hDJ3BdoAYmhyjjbtG0V0-25" value="" style="endArrow=classic;html=1;rounded=0;exitX=0;exitY=0.5;exitDx=0;exitDy=0;entryX=1;entryY=0.5;entryDx=0;entryDy=0;" parent="1" source="hDJ3BdoAYmhyjjbtG0V0-17" target="hDJ3BdoAYmhyjjbtG0V0-22" edge="1">
          <mxGeometry width="50" height="50" relative="1" as="geometry">
            <mxPoint x="742" y="-50" as="sourcePoint" />
            <mxPoint x="710" y="20" as="targetPoint" />
          </mxGeometry>
        </mxCell>
        <mxCell id="hDJ3BdoAYmhyjjbtG0V0-26" value="" style="endArrow=classic;html=1;rounded=0;entryX=1;entryY=0.5;entryDx=0;entryDy=0;exitX=0;exitY=1;exitDx=0;exitDy=0;" parent="1" source="hDJ3BdoAYmhyjjbtG0V0-17" target="hDJ3BdoAYmhyjjbtG0V0-24" edge="1">
          <mxGeometry width="50" height="50" relative="1" as="geometry">
            <mxPoint x="730" y="70" as="sourcePoint" />
            <mxPoint x="757" y="62" as="targetPoint" />
          </mxGeometry>
        </mxCell>
        <mxCell id="Pz-iReKoTr8WRBAwrSr6-12" value="ataques" style="shape=ext;margin=3;double=1;whiteSpace=wrap;html=1;" parent="1" vertex="1">
          <mxGeometry x="1035" y="-230" width="120" height="80" as="geometry" />
        </mxCell>
        <mxCell id="Pz-iReKoTr8WRBAwrSr6-13" value="&lt;u&gt;id&lt;/u&gt;" style="ellipse;whiteSpace=wrap;html=1;" parent="1" vertex="1">
          <mxGeometry x="910" y="-260" width="74" height="40" as="geometry" />
        </mxCell>
        <mxCell id="Pz-iReKoTr8WRBAwrSr6-14" value="" style="endArrow=classic;html=1;rounded=0;entryX=1;entryY=0.5;entryDx=0;entryDy=0;exitX=0;exitY=0;exitDx=0;exitDy=0;" parent="1" source="Pz-iReKoTr8WRBAwrSr6-12" target="Pz-iReKoTr8WRBAwrSr6-13" edge="1">
          <mxGeometry width="50" height="50" relative="1" as="geometry">
            <mxPoint x="1020" y="-250" as="sourcePoint" />
            <mxPoint x="1142" y="-250" as="targetPoint" />
          </mxGeometry>
        </mxCell>
        <mxCell id="Pz-iReKoTr8WRBAwrSr6-15" value="nombre" style="ellipse;whiteSpace=wrap;html=1;" parent="1" vertex="1">
          <mxGeometry x="912" y="-210" width="70" height="40" as="geometry" />
        </mxCell>
        <mxCell id="Pz-iReKoTr8WRBAwrSr6-16" value="descripcion" style="ellipse;whiteSpace=wrap;html=1;" parent="1" vertex="1">
          <mxGeometry x="910" y="-160" width="74" height="40" as="geometry" />
        </mxCell>
        <mxCell id="Pz-iReKoTr8WRBAwrSr6-17" value="" style="endArrow=classic;html=1;rounded=0;exitX=0;exitY=0.5;exitDx=0;exitDy=0;entryX=1;entryY=0.5;entryDx=0;entryDy=0;" parent="1" source="Pz-iReKoTr8WRBAwrSr6-12" target="Pz-iReKoTr8WRBAwrSr6-15" edge="1">
          <mxGeometry width="50" height="50" relative="1" as="geometry">
            <mxPoint x="1052" y="-240" as="sourcePoint" />
            <mxPoint x="1020" y="-170" as="targetPoint" />
          </mxGeometry>
        </mxCell>
        <mxCell id="Pz-iReKoTr8WRBAwrSr6-18" value="" style="endArrow=classic;html=1;rounded=0;entryX=1;entryY=0.5;entryDx=0;entryDy=0;exitX=0;exitY=1;exitDx=0;exitDy=0;" parent="1" source="Pz-iReKoTr8WRBAwrSr6-12" target="Pz-iReKoTr8WRBAwrSr6-16" edge="1">
          <mxGeometry width="50" height="50" relative="1" as="geometry">
            <mxPoint x="1040" y="-120" as="sourcePoint" />
            <mxPoint x="1067" y="-128" as="targetPoint" />
          </mxGeometry>
        </mxCell>
        <mxCell id="Pz-iReKoTr8WRBAwrSr6-20" value="jugadores" style="rounded=1;arcSize=10;whiteSpace=wrap;html=1;" parent="1" vertex="1">
          <mxGeometry x="1035" y="150" width="120" height="80" as="geometry" />
        </mxCell>
        <mxCell id="Pz-iReKoTr8WRBAwrSr6-21" value="&lt;u&gt;nombre&lt;/u&gt;" style="ellipse;whiteSpace=wrap;html=1;" parent="1" vertex="1">
          <mxGeometry x="893" y="120" width="74" height="40" as="geometry" />
        </mxCell>
        <mxCell id="Pz-iReKoTr8WRBAwrSr6-22" value="" style="endArrow=classic;html=1;rounded=0;entryX=1;entryY=0.5;entryDx=0;entryDy=0;exitX=0;exitY=0;exitDx=0;exitDy=0;" parent="1" source="Pz-iReKoTr8WRBAwrSr6-20" target="Pz-iReKoTr8WRBAwrSr6-21" edge="1">
          <mxGeometry width="50" height="50" relative="1" as="geometry">
            <mxPoint x="1003" y="130" as="sourcePoint" />
            <mxPoint x="1125" y="130" as="targetPoint" />
          </mxGeometry>
        </mxCell>
        <mxCell id="Pz-iReKoTr8WRBAwrSr6-23" value="vidaMax" style="ellipse;whiteSpace=wrap;html=1;" parent="1" vertex="1">
          <mxGeometry x="895" y="170" width="70" height="40" as="geometry" />
        </mxCell>
        <mxCell id="Pz-iReKoTr8WRBAwrSr6-24" value="defensa" style="ellipse;whiteSpace=wrap;html=1;" parent="1" vertex="1">
          <mxGeometry x="893" y="220" width="74" height="40" as="geometry" />
        </mxCell>
        <mxCell id="Pz-iReKoTr8WRBAwrSr6-25" value="" style="endArrow=classic;html=1;rounded=0;exitX=0;exitY=0.5;exitDx=0;exitDy=0;entryX=1;entryY=0.5;entryDx=0;entryDy=0;" parent="1" source="Pz-iReKoTr8WRBAwrSr6-20" target="Pz-iReKoTr8WRBAwrSr6-23" edge="1">
          <mxGeometry width="50" height="50" relative="1" as="geometry">
            <mxPoint x="1035" y="140" as="sourcePoint" />
            <mxPoint x="1003" y="210" as="targetPoint" />
          </mxGeometry>
        </mxCell>
        <mxCell id="Pz-iReKoTr8WRBAwrSr6-26" value="" style="endArrow=classic;html=1;rounded=0;entryX=1;entryY=0.5;entryDx=0;entryDy=0;exitX=0;exitY=1;exitDx=0;exitDy=0;" parent="1" source="Pz-iReKoTr8WRBAwrSr6-20" target="Pz-iReKoTr8WRBAwrSr6-24" edge="1">
          <mxGeometry width="50" height="50" relative="1" as="geometry">
            <mxPoint x="1023" y="260" as="sourcePoint" />
            <mxPoint x="1050" y="252" as="targetPoint" />
          </mxGeometry>
        </mxCell>
        <mxCell id="Pz-iReKoTr8WRBAwrSr6-27" value="fuerza" style="ellipse;whiteSpace=wrap;html=1;" parent="1" vertex="1">
          <mxGeometry x="907" y="270" width="74" height="40" as="geometry" />
        </mxCell>
        <mxCell id="Pz-iReKoTr8WRBAwrSr6-28" value="velocidad" style="ellipse;whiteSpace=wrap;html=1;" parent="1" vertex="1">
          <mxGeometry x="981" y="294" width="74" height="40" as="geometry" />
        </mxCell>
        <mxCell id="Pz-iReKoTr8WRBAwrSr6-29" value="idAscii" style="ellipse;whiteSpace=wrap;html=1;" parent="1" vertex="1">
          <mxGeometry x="1067" y="295" width="74" height="40" as="geometry" />
        </mxCell>
        <mxCell id="Pz-iReKoTr8WRBAwrSr6-30" value="karma" style="ellipse;whiteSpace=wrap;html=1;" parent="1" vertex="1">
          <mxGeometry x="1149" y="270" width="74" height="40" as="geometry" />
        </mxCell>
        <mxCell id="Pz-iReKoTr8WRBAwrSr6-31" value="" style="endArrow=classic;html=1;rounded=0;entryX=1;entryY=0;entryDx=0;entryDy=0;exitX=0.331;exitY=0.991;exitDx=0;exitDy=0;exitPerimeter=0;" parent="1" source="Pz-iReKoTr8WRBAwrSr6-20" target="Pz-iReKoTr8WRBAwrSr6-27" edge="1">
          <mxGeometry width="50" height="50" relative="1" as="geometry">
            <mxPoint x="1093" y="220" as="sourcePoint" />
            <mxPoint x="1007" y="242" as="targetPoint" />
          </mxGeometry>
        </mxCell>
        <mxCell id="Pz-iReKoTr8WRBAwrSr6-32" value="" style="endArrow=classic;html=1;rounded=0;entryX=1;entryY=0;entryDx=0;entryDy=0;exitX=0.5;exitY=1;exitDx=0;exitDy=0;" parent="1" source="Pz-iReKoTr8WRBAwrSr6-20" target="Pz-iReKoTr8WRBAwrSr6-28" edge="1">
          <mxGeometry width="50" height="50" relative="1" as="geometry">
            <mxPoint x="1143" y="260" as="sourcePoint" />
            <mxPoint x="1057" y="282" as="targetPoint" />
          </mxGeometry>
        </mxCell>
        <mxCell id="Pz-iReKoTr8WRBAwrSr6-33" value="" style="endArrow=classic;html=1;rounded=0;entryX=0.5;entryY=0;entryDx=0;entryDy=0;exitX=0.5;exitY=1;exitDx=0;exitDy=0;" parent="1" source="Pz-iReKoTr8WRBAwrSr6-20" target="Pz-iReKoTr8WRBAwrSr6-29" edge="1">
          <mxGeometry width="50" height="50" relative="1" as="geometry">
            <mxPoint x="1213" y="290" as="sourcePoint" />
            <mxPoint x="1127" y="312" as="targetPoint" />
          </mxGeometry>
        </mxCell>
        <mxCell id="Pz-iReKoTr8WRBAwrSr6-34" value="" style="endArrow=classic;html=1;rounded=0;entryX=0;entryY=0;entryDx=0;entryDy=0;exitX=1;exitY=1;exitDx=0;exitDy=0;" parent="1" source="Pz-iReKoTr8WRBAwrSr6-20" target="Pz-iReKoTr8WRBAwrSr6-30" edge="1">
          <mxGeometry width="50" height="50" relative="1" as="geometry">
            <mxPoint x="1223" y="240" as="sourcePoint" />
            <mxPoint x="1137" y="262" as="targetPoint" />
          </mxGeometry>
        </mxCell>
        <mxCell id="Pz-iReKoTr8WRBAwrSr6-35" value="Raid" style="ellipse;whiteSpace=wrap;html=1;" parent="1" vertex="1">
          <mxGeometry x="1223" y="250" width="74" height="40" as="geometry" />
        </mxCell>
        <mxCell id="Pz-iReKoTr8WRBAwrSr6-36" value="Boss" style="ellipse;whiteSpace=wrap;html=1;" parent="1" vertex="1">
          <mxGeometry x="1257" y="210" width="74" height="40" as="geometry" />
        </mxCell>
        <mxCell id="Pz-iReKoTr8WRBAwrSr6-37" value="Steve" style="ellipse;whiteSpace=wrap;html=1;" parent="1" vertex="1">
          <mxGeometry x="1257" y="160" width="74" height="40" as="geometry" />
        </mxCell>
        <mxCell id="Pz-iReKoTr8WRBAwrSr6-38" value="" style="endArrow=classic;html=1;rounded=0;entryX=0;entryY=0;entryDx=0;entryDy=0;exitX=1;exitY=0.5;exitDx=0;exitDy=0;" parent="1" source="Pz-iReKoTr8WRBAwrSr6-20" target="Pz-iReKoTr8WRBAwrSr6-35" edge="1">
          <mxGeometry width="50" height="50" relative="1" as="geometry">
            <mxPoint x="1147" y="230" as="sourcePoint" />
            <mxPoint x="1170" y="288" as="targetPoint" />
          </mxGeometry>
        </mxCell>
        <mxCell id="Pz-iReKoTr8WRBAwrSr6-39" value="" style="endArrow=classic;html=1;rounded=0;entryX=0;entryY=0.5;entryDx=0;entryDy=0;exitX=1;exitY=0.5;exitDx=0;exitDy=0;" parent="1" source="Pz-iReKoTr8WRBAwrSr6-20" target="Pz-iReKoTr8WRBAwrSr6-36" edge="1">
          <mxGeometry width="50" height="50" relative="1" as="geometry">
            <mxPoint x="1217" y="210" as="sourcePoint" />
            <mxPoint x="1240" y="268" as="targetPoint" />
          </mxGeometry>
        </mxCell>
        <mxCell id="Pz-iReKoTr8WRBAwrSr6-40" value="" style="endArrow=classic;html=1;rounded=0;entryX=0;entryY=0.5;entryDx=0;entryDy=0;exitX=1;exitY=0.5;exitDx=0;exitDy=0;" parent="1" source="Pz-iReKoTr8WRBAwrSr6-20" target="Pz-iReKoTr8WRBAwrSr6-37" edge="1">
          <mxGeometry width="50" height="50" relative="1" as="geometry">
            <mxPoint x="1227" y="180" as="sourcePoint" />
            <mxPoint x="1250" y="238" as="targetPoint" />
          </mxGeometry>
        </mxCell>
        <mxCell id="Pz-iReKoTr8WRBAwrSr6-41" value="relacion_ataques" style="rounded=1;arcSize=10;whiteSpace=wrap;html=1;" parent="1" vertex="1">
          <mxGeometry x="1420" y="-32.5" width="120" height="80" as="geometry" />
        </mxCell>
        <mxCell id="Pz-iReKoTr8WRBAwrSr6-42" value="&lt;u&gt;personaje_nombre&lt;/u&gt;" style="ellipse;whiteSpace=wrap;html=1;" parent="1" vertex="1">
          <mxGeometry x="1257" y="-140" width="122" height="40" as="geometry" />
        </mxCell>
        <mxCell id="Pz-iReKoTr8WRBAwrSr6-43" value="" style="endArrow=classic;html=1;rounded=0;entryX=0.715;entryY=1.05;entryDx=0;entryDy=0;exitX=0;exitY=0;exitDx=0;exitDy=0;entryPerimeter=0;" parent="1" source="Pz-iReKoTr8WRBAwrSr6-41" target="Pz-iReKoTr8WRBAwrSr6-42" edge="1">
          <mxGeometry width="50" height="50" relative="1" as="geometry">
            <mxPoint x="1388" y="-52.5" as="sourcePoint" />
            <mxPoint x="1510" y="-52.5" as="targetPoint" />
          </mxGeometry>
        </mxCell>
        <mxCell id="Pz-iReKoTr8WRBAwrSr6-44" value="ataque_id" style="ellipse;whiteSpace=wrap;html=1;" parent="1" vertex="1">
          <mxGeometry x="1261" y="47.5" width="70" height="40" as="geometry" />
        </mxCell>
        <mxCell id="Pz-iReKoTr8WRBAwrSr6-46" value="" style="endArrow=classic;html=1;rounded=0;exitX=0;exitY=0.5;exitDx=0;exitDy=0;entryX=1;entryY=0;entryDx=0;entryDy=0;" parent="1" source="Pz-iReKoTr8WRBAwrSr6-41" target="Pz-iReKoTr8WRBAwrSr6-44" edge="1">
          <mxGeometry width="50" height="50" relative="1" as="geometry">
            <mxPoint x="1420" y="-42.5" as="sourcePoint" />
            <mxPoint x="1388" y="27.5" as="targetPoint" />
          </mxGeometry>
        </mxCell>
        <mxCell id="Pz-iReKoTr8WRBAwrSr6-48" value="Tiene" style="rhombus;whiteSpace=wrap;html=1;" parent="1" vertex="1">
          <mxGeometry x="1067.5" y="-26.25" width="55" height="52.5" as="geometry" />
        </mxCell>
        <mxCell id="Pz-iReKoTr8WRBAwrSr6-49" value="" style="endArrow=classic;startArrow=classic;html=1;rounded=0;exitX=0.5;exitY=0;exitDx=0;exitDy=0;entryX=0.5;entryY=1;entryDx=0;entryDy=0;" parent="1" source="Pz-iReKoTr8WRBAwrSr6-20" target="Pz-iReKoTr8WRBAwrSr6-48" edge="1">
          <mxGeometry width="50" height="50" relative="1" as="geometry">
            <mxPoint x="1084.5" y="150" as="sourcePoint" />
            <mxPoint x="1101" y="40" as="targetPoint" />
          </mxGeometry>
        </mxCell>
        <mxCell id="Pz-iReKoTr8WRBAwrSr6-50" value="" style="endArrow=classic;startArrow=classic;html=1;rounded=0;exitX=0.5;exitY=0;exitDx=0;exitDy=0;entryX=0.5;entryY=1;entryDx=0;entryDy=0;" parent="1" source="Pz-iReKoTr8WRBAwrSr6-48" target="Pz-iReKoTr8WRBAwrSr6-12" edge="1">
          <mxGeometry width="50" height="50" relative="1" as="geometry">
            <mxPoint x="1060" y="-40" as="sourcePoint" />
            <mxPoint x="1110" y="-90" as="targetPoint" />
          </mxGeometry>
        </mxCell>
        <mxCell id="Pz-iReKoTr8WRBAwrSr6-51" value="" style="endArrow=classic;startArrow=classic;html=1;rounded=0;exitX=0;exitY=0;exitDx=0;exitDy=0;entryX=1;entryY=0.5;entryDx=0;entryDy=0;" parent="1" source="Pz-iReKoTr8WRBAwrSr6-42" target="Pz-iReKoTr8WRBAwrSr6-12" edge="1">
          <mxGeometry width="50" height="50" relative="1" as="geometry">
            <mxPoint x="1160" y="-6" as="sourcePoint" />
            <mxPoint x="1160" y="-130" as="targetPoint" />
          </mxGeometry>
        </mxCell>
        <mxCell id="Pz-iReKoTr8WRBAwrSr6-52" value="" style="endArrow=classic;startArrow=classic;html=1;rounded=0;exitX=0;exitY=1;exitDx=0;exitDy=0;entryX=1;entryY=0;entryDx=0;entryDy=0;" parent="1" source="Pz-iReKoTr8WRBAwrSr6-44" target="Pz-iReKoTr8WRBAwrSr6-20" edge="1">
          <mxGeometry width="50" height="50" relative="1" as="geometry">
            <mxPoint x="1320" y="-114" as="sourcePoint" />
            <mxPoint x="1200" y="-170" as="targetPoint" />
          </mxGeometry>
        </mxCell>
        <mxCell id="Pz-iReKoTr8WRBAwrSr6-53" value="1:N&lt;span style=&quot;color: rgba(0, 0, 0, 0); font-family: monospace; font-size: 0px; text-align: start; text-wrap-mode: nowrap;&quot;&gt;%3CmxGraphModel%3E%3Croot%3E%3CmxCell%20id%3D%220%22%2F%3E%3CmxCell%20id%3D%221%22%20parent%3D%220%22%2F%3E%3CmxCell%20id%3D%222%22%20value%3D%22%22%20style%3D%22endArrow%3Dclassic%3BstartArrow%3Dclassic%3Bhtml%3D1%3Brounded%3D0%3BexitX%3D0%3BexitY%3D0%3BexitDx%3D0%3BexitDy%3D0%3BentryX%3D1%3BentryY%3D0.5%3BentryDx%3D0%3BentryDy%3D0%3B%22%20edge%3D%221%22%20parent%3D%221%22%3E%3CmxGeometry%20width%3D%2250%22%20height%3D%2250%22%20relative%3D%221%22%20as%3D%22geometry%22%3E%3CmxPoint%20x%3D%221275%22%20y%3D%22-134%22%20as%3D%22sourcePoint%22%2F%3E%3CmxPoint%20x%3D%221155%22%20y%3D%22-190%22%20as%3D%22targetPoint%22%2F%3E%3C%2FmxGeometry%3E%3C%2FmxCell%3E%3C%2Froot%3E%3C%2FmxGraphModel%3E&lt;/span&gt;" style="text;html=1;align=center;verticalAlign=middle;whiteSpace=wrap;rounded=0;" parent="1" vertex="1">
          <mxGeometry x="1035" y="120" width="60" height="30" as="geometry" />
        </mxCell>
        <mxCell id="Pz-iReKoTr8WRBAwrSr6-54" value="N:N" style="text;html=1;align=center;verticalAlign=middle;whiteSpace=wrap;rounded=0;" parent="1" vertex="1">
          <mxGeometry x="1035" y="-140" width="60" height="30" as="geometry" />
        </mxCell>
        <mxCell id="Pz-iReKoTr8WRBAwrSr6-55" value="1:N&lt;span style=&quot;color: rgba(0, 0, 0, 0); font-family: monospace; font-size: 0px; text-align: start; text-wrap-mode: nowrap;&quot;&gt;%3CmxGraphModel%3E%3Croot%3E%3CmxCell%20id%3D%220%22%2F%3E%3CmxCell%20id%3D%221%22%20parent%3D%220%22%2F%3E%3CmxCell%20id%3D%222%22%20value%3D%22%22%20style%3D%22endArrow%3Dclassic%3BstartArrow%3Dclassic%3Bhtml%3D1%3Brounded%3D0%3BexitX%3D0%3BexitY%3D0%3BexitDx%3D0%3BexitDy%3D0%3BentryX%3D1%3BentryY%3D0.5%3BentryDx%3D0%3BentryDy%3D0%3B%22%20edge%3D%221%22%20parent%3D%221%22%3E%3CmxGeometry%20width%3D%2250%22%20height%3D%2250%22%20relative%3D%221%22%20as%3D%22geometry%22%3E%3CmxPoint%20x%3D%221275%22%20y%3D%22-134%22%20as%3D%22sourcePoint%22%2F%3E%3CmxPoint%20x%3D%221155%22%20y%3D%22-190%22%20as%3D%22targetPoint%22%2F%3E%3C%2FmxGeometry%3E%3C%2FmxCell%3E%3C%2Froot%3E%3C%2FmxGraphModel%3E&lt;/span&gt;" style="text;html=1;align=center;verticalAlign=middle;whiteSpace=wrap;rounded=0;" parent="1" vertex="1">
          <mxGeometry x="1110" y="120" width="60" height="30" as="geometry" />
        </mxCell>
        <mxCell id="Pz-iReKoTr8WRBAwrSr6-56" value="N:1" style="text;html=1;align=center;verticalAlign=middle;whiteSpace=wrap;rounded=0;" parent="1" vertex="1">
          <mxGeometry x="1141" y="-170" width="60" height="30" as="geometry" />
        </mxCell>
      </root>
    </mxGraphModel>
  </diagram>
</mxfile>
